HIERARCHY
ROOT Hips
{
	OFFSET 0.091440 88.258293 2.461285
	CHANNELS 6 Xposition Yposition Zposition Zrotation Yrotation Xrotation 
	JOINT Spine
	{
		OFFSET -0.000000 8.814246 -2.080107
		CHANNELS 3 Zrotation Yrotation Xrotation
		JOINT Spine1
		{
			OFFSET 0.000000 8.844141 -0.000000
			CHANNELS 3 Zrotation Yrotation Xrotation
			JOINT Spine2
			{
				OFFSET 0.000000 11.682268 -0.000000
				CHANNELS 3 Zrotation Yrotation Xrotation
				JOINT Spine3
				{
					OFFSET 0.000000 11.746700 -0.000000
					CHANNELS 3 Zrotation Yrotation Xrotation
					JOINT Neck
					{
						OFFSET -0.000000 17.658264 0.000000
						CHANNELS 3 Zrotation Yrotation Xrotation
						JOINT Neck1
						{
							OFFSET 0.000000 5.101515 -0.000000
							CHANNELS 3 Zrotation Yrotation Xrotation
							JOINT Head
							{
								OFFSET 0.000000 5.101515 -0.000000
								CHANNELS 3 Zrotation Yrotation Xrotation
								JOINT HeadEnd
								{
									OFFSET -0.000000 11.655085 0.000000
									CHANNELS 3 Zrotation Yrotation Xrotation
									End Site
									{
										OFFSET 0.000000 0.000000 0.000000
									}
								}
							}
						}
					}
					JOINT RightShoulder
					{
						OFFSET -2.625389 11.175210 -0.000000
						CHANNELS 3 Zrotation Yrotation Xrotation
						JOINT RightArm
						{
							OFFSET 0.000000 10.434715 -0.000000
							CHANNELS 3 Zrotation Yrotation Xrotation
							JOINT RightForeArm
							{
								OFFSET 0.000000 29.628420 -0.000000
								CHANNELS 3 Zrotation Yrotation Xrotation
								JOINT RightHand
								{
									OFFSET -0.000000 22.857611 0.000000
									CHANNELS 3 Zrotation Yrotation Xrotation
									JOINT RightHandThumb1
									{
										OFFSET -2.867323 3.959563 2.944291
										CHANNELS 3 Zrotation Yrotation Xrotation
										JOINT RightHandThumb2
										{
											OFFSET -0.000000 3.350399 0.000000
											CHANNELS 3 Zrotation Yrotation Xrotation
											JOINT RightHandThumb3
											{
												OFFSET -0.000000 3.756509 0.000000
												CHANNELS 3 Zrotation Yrotation Xrotation
												JOINT RightHandThumb4
												{
													OFFSET 0.000000 3.147345 -0.000000
													CHANNELS 3 Zrotation Yrotation Xrotation
													End Site
													{
														OFFSET 0.000000 0.000000 0.000000
													}
												}
											}
										}
									}
									JOINT RightHandIndex1
									{
										OFFSET -0.086752 10.030893 2.345280
										CHANNELS 3 Zrotation Yrotation Xrotation
										JOINT RightHandIndex2
										{
											OFFSET 0.000000 4.061090 -0.000000
											CHANNELS 3 Zrotation Yrotation Xrotation
											JOINT RightHandIndex3
											{
												OFFSET -0.000000 3.248873 0.000000
												CHANNELS 3 Zrotation Yrotation Xrotation
												JOINT RightHandIndex4
												{
													OFFSET 0.000000 2.639709 -0.000000
													CHANNELS 3 Zrotation Yrotation Xrotation
													End Site
													{
														OFFSET 0.000000 0.000000 0.000000
													}
												}
											}
										}
									}
									JOINT RightHandMiddle1
									{
										OFFSET 0.104102 9.502952 0.006768
										CHANNELS 3 Zrotation Yrotation Xrotation
										JOINT RightHandMiddle2
										{
											OFFSET -0.000000 4.568727 0.000000
											CHANNELS 3 Zrotation Yrotation Xrotation
											JOINT RightHandMiddle3
											{
												OFFSET -0.000000 3.654981 0.000000
												CHANNELS 3 Zrotation Yrotation Xrotation
												JOINT RightHandMiddle4
												{
													OFFSET -0.000000 2.741236 0.000000
													CHANNELS 3 Zrotation Yrotation Xrotation
													End Site
													{
														OFFSET 0.000000 0.000000 0.000000
													}
												}
											}
										}
									}
									JOINT RightHandRing1
									{
										OFFSET 0.086752 8.921708 -2.267442
										CHANNELS 3 Zrotation Yrotation Xrotation
										JOINT RightHandRing2
										{
											OFFSET -0.000000 4.061090 0.000000
											CHANNELS 3 Zrotation Yrotation Xrotation
											JOINT RightHandRing3
											{
												OFFSET -0.000000 3.654981 0.000000
												CHANNELS 3 Zrotation Yrotation Xrotation
												JOINT RightHandRing4
												{
													OFFSET 0.000000 2.741236 0.000000
													CHANNELS 3 Zrotation Yrotation Xrotation
													End Site
													{
														OFFSET 0.000000 0.000000 0.000000
													}
												}
											}
										}
									}
									JOINT RightHandPinky1
									{
										OFFSET -0.173504 7.976997 -4.467199
										CHANNELS 3 Zrotation Yrotation Xrotation
										JOINT RightHandPinky2
										{
											OFFSET -0.000000 3.350399 -0.000000
											CHANNELS 3 Zrotation Yrotation Xrotation
											JOINT RightHandPinky3
											{
												OFFSET -0.000000 2.842763 -0.000000
												CHANNELS 3 Zrotation Yrotation Xrotation
												JOINT RightHandPinky4
												{
													OFFSET -0.000000 2.639709 -0.000000
													CHANNELS 3 Zrotation Yrotation Xrotation
													End Site
													{
														OFFSET 0.000000 0.000000 0.000000
													}
												}
											}
										}
									}
									JOINT RightForeArmEnd
									{
										OFFSET 0.000000 0.000000 0.000000
										CHANNELS 3 Zrotation Yrotation Xrotation
										End Site
										{
											OFFSET 0.000000 0.000000 0.000000
										}
									}
								}
								JOINT RightArmEnd
								{
									OFFSET 0.000000 0.000000 0.000000
									CHANNELS 3 Zrotation Yrotation Xrotation
									End Site
									{
										OFFSET 0.000000 0.000000 0.000000
									}
								}
							}
						}
					}
					JOINT LeftShoulder
					{
						OFFSET 2.625389 11.175210 0.000000
						CHANNELS 3 Zrotation Yrotation Xrotation
						JOINT LeftArm
						{
							OFFSET -0.000000 10.813635 -0.000000
							CHANNELS 3 Zrotation Yrotation Xrotation
							JOINT LeftForeArm
							{
								OFFSET -0.000000 28.724781 -0.000000
								CHANNELS 3 Zrotation Yrotation Xrotation
								JOINT LeftHand
								{
									OFFSET 0.644384 25.716167 -0.328871
									CHANNELS 3 Zrotation Yrotation Xrotation
									JOINT LeftHandThumb1
									{
										OFFSET 2.867323 3.959563 2.944291
										CHANNELS 3 Zrotation Yrotation Xrotation
										JOINT LeftHandThumb2
										{
											OFFSET -0.000000 3.350399 0.000000
											CHANNELS 3 Zrotation Yrotation Xrotation
											JOINT LeftHandThumb3
											{
												OFFSET -0.000000 3.756509 -0.000000
												CHANNELS 3 Zrotation Yrotation Xrotation
												JOINT LeftHandThumb4
												{
													OFFSET 0.000000 3.100000 0.000000
													CHANNELS 3 Zrotation Yrotation Xrotation
													End Site
													{
														OFFSET 0.000000 0.000000 0.000000
													}
												}
											}
										}
									}
									JOINT LeftHandIndex1
									{
										OFFSET 0.086752 10.030893 2.345280
										CHANNELS 3 Zrotation Yrotation Xrotation
										JOINT LeftHandIndex2
										{
											OFFSET -0.000000 4.061090 0.000000
											CHANNELS 3 Zrotation Yrotation Xrotation
											JOINT LeftHandIndex3
											{
												OFFSET -0.000000 3.248873 -0.000000
												CHANNELS 3 Zrotation Yrotation Xrotation
												JOINT LeftHandIndex4
												{
													OFFSET -0.000000 2.639709 -0.000000
													CHANNELS 3 Zrotation Yrotation Xrotation
													End Site
													{
														OFFSET 0.000000 0.000000 0.000000
													}
												}
											}
										}
									}
									JOINT LeftHandMiddle1
									{
										OFFSET -0.104102 9.502952 0.006768
										CHANNELS 3 Zrotation Yrotation Xrotation
										JOINT LeftHandMiddle2
										{
											OFFSET -0.000000 4.568727 -0.000000
											CHANNELS 3 Zrotation Yrotation Xrotation
											JOINT LeftHandMiddle3
											{
												OFFSET 0.000000 3.654981 -0.000000
												CHANNELS 3 Zrotation Yrotation Xrotation
												JOINT LeftHandMiddle4
												{
													OFFSET -0.000000 2.741236 -0.000000
													CHANNELS 3 Zrotation Yrotation Xrotation
													End Site
													{
														OFFSET 0.000000 0.000000 0.000000
													}
												}
											}
										}
									}
									JOINT LeftHandRing1
									{
										OFFSET -0.086752 8.921708 -2.267442
										CHANNELS 3 Zrotation Yrotation Xrotation
										JOINT LeftHandRing2
										{
											OFFSET 0.000000 4.061090 0.000000
											CHANNELS 3 Zrotation Yrotation Xrotation
											JOINT LeftHandRing3
											{
												OFFSET 0.000000 3.654981 -0.000000
												CHANNELS 3 Zrotation Yrotation Xrotation
												JOINT LeftHandRing4
												{
													OFFSET 0.000000 2.741236 -0.000000
													CHANNELS 3 Zrotation Yrotation Xrotation
													End Site
													{
														OFFSET 0.000000 0.000000 0.000000
													}
												}
											}
										}
									}
									JOINT LeftHandPinky1
									{
										OFFSET 0.173504 7.976997 -4.467199
										CHANNELS 3 Zrotation Yrotation Xrotation
										JOINT LeftHandPinky2
										{
											OFFSET -0.000000 3.350399 0.000000
											CHANNELS 3 Zrotation Yrotation Xrotation
											JOINT LeftHandPinky3
											{
												OFFSET 0.000000 2.842763 0.000000
												CHANNELS 3 Zrotation Yrotation Xrotation
												JOINT LeftHandPinky4
												{
													OFFSET 0.000000 2.639709 0.000000
													CHANNELS 3 Zrotation Yrotation Xrotation
													End Site
													{
														OFFSET 0.000000 0.000000 0.000000
													}
												}
											}
										}
									}
									JOINT LeftForeArmEnd
									{
										OFFSET 0.000000 0.000000 0.000000
										CHANNELS 3 Zrotation Yrotation Xrotation
										End Site
										{
											OFFSET 0.000000 0.000000 0.000000
										}
									}
								}
								JOINT LeftArmEnd
								{
									OFFSET 0.000000 0.000000 0.000000
									CHANNELS 3 Zrotation Yrotation Xrotation
									End Site
									{
										OFFSET 0.000000 0.000000 0.000000
									}
								}
							}
						}
					}
				}
			}
		}
	}
	JOINT RightUpLeg
	{
		OFFSET -11.289943 0.000000 0.000000
		CHANNELS 3 Zrotation Yrotation Xrotation
		JOINT RightLeg
		{
			OFFSET 0.000000 -38.200325 -0.000000
			CHANNELS 3 Zrotation Yrotation Xrotation
			JOINT RightFoot
			{
				OFFSET 0.000000 -39.900856 0.000000
				CHANNELS 3 Zrotation Yrotation Xrotation
				JOINT RightToeBase
				{
					OFFSET -0.000000 -0.000000 15.261641
					CHANNELS 3 Zrotation Yrotation Xrotation
					JOINT RightToeBaseEnd
					{
						OFFSET 0.000000 0.000000 7.370709
						CHANNELS 3 Zrotation Yrotation Xrotation
						End Site
						{
							OFFSET 0.000000 0.000000 0.000000
						}
					}
				}
				JOINT RightLegEnd
				{
					OFFSET 0.000000 0.000000 0.000000
					CHANNELS 3 Zrotation Yrotation Xrotation
					End Site
					{
						OFFSET 0.000000 0.000000 0.000000
					}
				}
			}
			JOINT RightUpLegEnd
			{
				OFFSET 0.000000 0.000000 0.000000
				CHANNELS 3 Zrotation Yrotation Xrotation
				End Site
				{
					OFFSET 0.000000 0.000000 0.000000
				}
			}
		}
	}
	JOINT LeftUpLeg
	{
		OFFSET 11.315661 0.000000 -0.000000
		CHANNELS 3 Zrotation Yrotation Xrotation
		JOINT LeftLeg
		{
			OFFSET -0.000000 -38.200325 0.000000
			CHANNELS 3 Zrotation Yrotation Xrotation
			JOINT LeftFoot
			{
				OFFSET -0.000000 -39.900856 0.000000
				CHANNELS 3 Zrotation Yrotation Xrotation
				JOINT LeftToeBase
				{
					OFFSET 0.000000 -0.000000 15.261641
					CHANNELS 3 Zrotation Yrotation Xrotation
					JOINT LeftToeBaseEnd
					{
						OFFSET 0.000000 -0.000000 7.539996
						CHANNELS 3 Zrotation Yrotation Xrotation
						End Site
						{
							OFFSET 0.000000 0.000000 0.000000
						}
					}
				}
				JOINT LeftLegEnd
				{
					OFFSET 0.000000 0.000000 0.000000
					CHANNELS 3 Zrotation Yrotation Xrotation
					End Site
					{
						OFFSET 0.000000 0.000000 0.000000
					}
				}
			}
			JOINT LeftUpLegEnd
			{
				OFFSET 0.000000 0.000000 0.000000
				CHANNELS 3 Zrotation Yrotation Xrotation
				End Site
				{
					OFFSET 0.000000 0.000000 0.000000
				}
			}
		}
	}
}
MOTION
Frames: 4
Frame Time: 0.016667
0.946905 86.933365 42.960346 -3.254474 -8.641388 -10.942207 2.745179 -0.253444 6.753887 2.007156 -0.787377 2.870419 1.385268 -2.995261 8.405536 -0.986331 -0.350501 4.103516 6.030169 2.631819 3.662317 -1.618418 2.598630 -6.833294 -1.052786 1.595648 -19.825512 0.000000 0.000000 0.000000 90.869247 -0.620360 9.014514 56.086418 -34.167446 10.887989 1.181176 16.930916 35.301178 10.519723 17.647430 -5.056855 13.876884 -1.886647 38.770683 0.000015 0.000041 -33.405056 -0.000005 0.000031 -23.080360 0.000010 -0.000003 -0.000044 30.784891 -0.158448 -6.422349 21.338781 0.103050 -0.023755 21.381699 0.093477 -0.032324 0.000012 0.000026 -0.000030 28.382746 -0.047249 -6.331447 20.474781 0.030020 0.026757 20.522240 0.023813 0.029398 -0.000002 -0.000093 0.000002 29.032349 0.017461 -5.046514 20.564072 -0.060248 -0.048459 20.592323 -0.032833 -0.040285 -0.000013 0.001247 0.000016 27.889853 0.118784 -5.274211 19.377312 -0.159481 -0.283759 19.270472 -0.141771 -0.272743 -0.000083 -0.000007 -0.000043 0.000000 0.000000 0.000000 0.000000 0.000000 0.000000 -88.731010 0.387352 6.537576 -64.212830 30.982714 1.083224 -0.503130 -12.189099 43.989334 5.696304 -14.088999 -16.424324 -16.462755 2.004511 37.522900 -0.000037 0.000029 -40.118828 0.000175 0.000012 -27.767580 -0.001646 -0.000035 -0.003245 -45.052818 -0.129294 -15.106733 -30.584417 0.109903 0.179796 -30.713039 0.116018 0.161676 0.000038 -0.001093 0.000022 -44.227119 -0.013548 -12.520450 -30.436270 0.027621 0.046909 -30.335655 0.026335 0.043321 -0.000623 -0.000058 0.000235 -48.771042 0.030281 -6.998928 -33.222000 -0.055260 -0.078521 -33.179752 -0.037172 -0.041464 0.001367 -0.000005 0.000008 -50.588295 0.043728 -2.403317 -33.511143 -0.216902 -0.181186 -33.634415 -0.150563 -0.209267 -0.000733 -0.000003 -0.000058 0.000000 0.000000 0.000000 0.000000 0.000000 0.000000 1.997220 -4.901988 5.510969 -0.240354 -0.726778 16.533058 -2.223629 -14.286931 15.968991 -1.024114 0.683116 -22.787809 0.000000 0.000000 0.000000 0.000000 0.000000 0.000000 0.000000 0.000000 0.000000 13.899772 -1.621739 9.289613 0.404820 1.043060 22.650648 -7.947276 8.690323 10.460030 0.658640 -0.328743 -22.865614 0.000000 0.000000 0.000000 0.000000 0.000000 0.000000 0.000000 0.000000 0.000000 
0.199551 86.950310 43.088684 -3.297069 -8.286490 -10.958792 2.788957 -0.293892 6.732094 2.012145 -0.807765 2.864104 1.468246 -3.181395 8.352916 -0.970372 -0.427869 4.073993 5.953702 2.599970 3.592831 -1.690832 2.580238 -6.879143 -1.087837 1.614563 -19.784113 0.000000 0.000000 0.000000 90.846199 -0.622901 9.018994 55.905041 -34.149734 10.974200 1.163680 16.853361 35.327316 10.448174 17.309954 -4.808987 13.913325 -1.886257 38.760288 0.000015 0.000041 -33.474258 -0.000004 0.000031 -23.126726 0.000011 -0.000003 -0.000045 31.000734 -0.158548 -6.384887 21.531267 0.106323 -0.028114 21.571798 0.095489 -0.036082 0.000012 0.000026 -0.000031 28.575312 -0.046922 -6.293941 20.648836 0.031067 0.025787 20.698374 0.024504 0.028928 0.000001 -0.000098 0.000002 29.124670 0.017193 -5.011925 20.725302 -0.059124 -0.050680 20.747473 -0.032219 -0.041051 -0.000014 0.001297 0.000015 27.939091 0.122678 -5.258071 19.492575 -0.153433 -0.305151 19.392805 -0.137325 -0.287438 -0.000072 -0.000008 -0.000043 0.000000 0.000000 0.000000 0.000000 0.000000 0.000000 -88.739777 0.346284 6.698620 -64.133568 31.311241 1.454847 -0.447308 -12.087213 43.893364 5.849102 -13.604149 -16.352222 -16.656765 2.013132 37.430103 -0.000036 0.000031 -40.608955 0.000172 0.000012 -28.113514 -0.001630 -0.000035 -0.003319 -45.948185 -0.131541 -15.103576 -31.167645 0.118300 0.212171 -31.285618 0.124271 0.187784 0.000038 -0.001120 0.000022 -45.111740 -0.013773 -12.491529 -31.028847 0.031386 0.057476 -30.925545 0.029184 0.051640 -0.000664 -0.000057 0.000226 -49.573952 0.031851 -6.947283 -33.804737 -0.060646 -0.093750 -33.768124 -0.040764 -0.051213 0.001287 -0.000004 0.000008 -51.302242 0.052553 -2.280674 -34.061798 -0.228634 -0.216681 -34.189056 -0.160502 -0.234583 -0.000725 -0.000003 -0.000058 0.000000 0.000000 0.000000 0.000000 0.000000 0.000000 2.463601 -5.134851 5.806820 -0.230557 -0.705761 16.408337 -2.534031 -14.526898 15.829927 -0.987596 0.667379 -22.716553 0.000000 0.000000 0.000000 0.000000 0.000000 0.000000 0.000000 0.000000 0.000000 14.307680 -1.728645 9.274942 0.410271 1.039894 22.653358 -8.113119 8.580610 10.902640 0.668372 -0.287497 -22.979166 0.000000 0.000000 0.000000 0.000000 0.000000 0.000000 0.000000 0.000000 0.000000 
-0.519445 86.968353 43.212639 -3.315957 -7.943197 -10.982609 2.827183 -0.331233 6.712916 2.023587 -0.827008 2.859212 1.537058 -3.349138 8.306339 -0.959872 -0.498127 4.044243 5.879232 2.557142 3.509213 -1.761259 2.545710 -6.923669 -1.116463 1.634893 -19.743093 0.000000 0.000000 0.000000 90.833366 -0.621182 9.033943 55.741627 -34.168491 11.061759 1.142438 16.775888 35.324722 10.414020 16.955542 -4.562693 13.931765 -1.887021 38.754227 0.000015 0.000042 -33.504189 -0.000003 0.000031 -23.145193 0.000012 -0.000002 -0.000046 31.143059 -0.158501 -6.340035 21.657263 0.107013 -0.027587 21.694809 0.095164 -0.035552 0.000011 0.000027 -0.000033 28.702585 -0.046533 -6.260069 20.757290 0.031169 0.026609 20.808924 0.024411 0.029849 0.000003 -0.000103 0.000002 29.156981 0.017030 -4.990014 20.825325 -0.056423 -0.054971 20.840464 -0.030555 -0.043487 -0.000014 0.001350 0.000014 27.925209 0.126596 -5.261943 19.554132 -0.143074 -0.331532 19.461666 -0.129342 -0.305994 -0.000055 -0.000009 -0.000042 0.000000 0.000000 0.000000 0.000000 0.000000 0.000000 -88.747795 0.306882 6.864828 -64.051331 31.651867 1.867126 -0.386343 -11.963144 43.837616 5.988688 -13.113945 -16.258324 -16.822620 2.021297 37.347908 -0.000035 0.000033 -41.036404 0.000169 0.000012 -28.415613 -0.001608 -0.000036 -0.003378 -46.728107 -0.133757 -15.082047 -31.669916 0.125245 0.242333 -31.778164 0.131166 0.212042 0.000038 -0.001139 0.000021 -45.888191 -0.014033 -12.451091 -31.540890 0.034701 0.067121 -31.435251 0.031640 0.059212 -0.000699 -0.000056 0.000218 -50.274380 0.033417 -6.892685 -34.307087 -0.065186 -0.107352 -34.274849 -0.043773 -0.059898 0.001213 -0.000003 0.000007 -51.922493 0.061045 -2.169016 -34.537449 -0.237627 -0.247071 -34.666824 -0.168224 -0.255737 -0.000712 -0.000004 -0.000058 0.000000 0.000000 0.000000 0.000000 0.000000 0.000000 2.895150 -5.330288 6.085968 -0.220728 -0.682978 16.311193 -2.840050 -14.755718 15.700786 -0.949542 0.647932 -22.651878 0.000000 0.000000 0.000000 0.000000 0.000000 0.000000 0.000000 0.000000 0.000000 14.659778 -1.806189 9.247453 0.414971 1.035623 22.654783 -8.243276 8.495104 11.355412 0.676023 -0.248022 -23.088196 0.000000 0.000000 0.000000 0.000000 0.000000 0.000000 0.000000 0.000000 0.000000 
-1.208132 86.988640 43.333004 -3.313333 -7.614920 -11.011552 2.862269 -0.365223 6.695335 2.041346 -0.845448 2.855518 1.592910 -3.496533 8.263935 -0.955541 -0.560344 4.013552 5.804028 2.501721 3.420418 -1.829006 2.492857 -6.963733 -1.139177 1.655285 -19.703644 0.000000 0.000000 0.000000 90.830009 -0.615001 9.057486 55.599831 -34.233795 11.141372 1.118133 16.699667 35.293922 10.395535 16.584929 -4.328203 13.933684 -1.888581 38.752506 0.000015 0.000042 -33.498260 -0.000002 0.000031 -23.138281 0.000012 -0.000002 -0.000046 31.214355 -0.158211 -6.289632 21.722799 0.105465 -0.022778 21.757118 0.092826 -0.031229 0.000010 0.000027 -0.000034 28.766266 -0.046065 -6.228527 20.806814 0.030443 0.028984 20.860706 0.023642 0.032005 0.000004 -0.000108 0.000002 29.133350 0.016906 -4.976388 20.870968 -0.052370 -0.060996 20.878126 -0.028003 -0.047365 -0.000015 0.001400 0.000013 27.854816 0.130259 -5.278086 19.569319 -0.129118 -0.361699 19.484211 -0.118506 -0.327407 -0.000033 -0.000009 -0.000041 0.000000 0.000000 0.000000 0.000000 0.000000 0.000000 -88.755264 0.269160 7.028128 -63.976978 31.988527 2.303553 -0.321759 -11.825872 43.816814 6.117826 -12.628074 -16.138826 -16.962818 2.028844 37.275761 -0.000033 0.000035 -41.406158 0.000166 0.000012 -28.677305 -0.001579 -0.000037 -0.003427 -47.403187 -0.135753 -15.041969 -32.100128 0.130939 0.270517 -32.199810 0.136927 0.234625 0.000037 -0.001153 0.000021 -46.565800 -0.014268 -12.397117 -31.981276 0.037610 0.075969 -31.873688 0.033731 0.066122 -0.000723 -0.000056 0.000211 -50.882668 0.034899 -6.830843 -34.738575 -0.068957 -0.119518 -34.709682 -0.046263 -0.067676 0.001147 -0.000002 0.000007 -52.460014 0.068854 -2.062021 -34.946838 -0.244264 -0.273213 -35.076664 -0.174090 -0.273395 -0.000695 -0.000005 -0.000058 0.000000 0.000000 0.000000 0.000000 0.000000 0.000000 3.291749 -5.493030 6.350461 -0.210976 -0.659185 16.230831 -3.139047 -14.973109 15.583803 -0.910947 0.625671 -22.593861 0.000000 0.000000 0.000000 0.000000 0.000000 0.000000 0.000000 0.000000 0.000000 14.957814 -1.855260 9.207411 0.418872 1.030792 22.651066 -8.340140 8.435309 11.816552 0.681919 -0.210936 -23.194176 0.000000 0.000000 0.000000 0.000000 0.000000 0.000000 0.000000 0.000000 0.000000 
